<svg width="78.873291" height="80.000000" viewBox="0 0 78.8733 80" fill="none" xmlns="http://www.w3.org/2000/svg" xmlns:xlink="http://www.w3.org/1999/xlink">
	<desc>
			Created with Pixso.
	</desc>
	<defs/>
	<path id="Vector" d="M4.49 63.61L4.49 26.63L0 26.63L0 63.61L4.49 63.61ZM16.45 75.52C9.84 75.52 4.49 70.19 4.49 63.61L0 63.61C0 72.65 7.37 80 16.45 80L16.45 75.52ZM62.41 75.52L16.45 75.52L16.45 80L62.41 80L62.41 75.52ZM74.38 63.61C74.38 70.19 69.02 75.52 62.41 75.52L62.41 80C71.49 80 78.87 72.65 78.87 63.61L74.38 63.61ZM74.38 16.38L74.38 63.61L78.87 63.61L78.87 16.38L74.38 16.38ZM62.41 4.47C69.02 4.47 74.38 9.8 74.38 16.38L78.87 16.38C78.87 7.34 71.49 0 62.41 0L62.41 4.47ZM27.09 4.47L62.41 4.47L62.41 0L27.09 0L27.09 4.47ZM4.49 26.63C4.49 25.4 3.47 24.39 2.24 24.39C1.01 24.39 0 25.4 0 26.63L4.49 26.63ZM27.09 0C25.86 0 24.85 1 24.85 2.23C24.85 3.46 25.86 4.47 27.09 4.47L27.09 0Z" fill="#0076FE" fill-opacity="1.000000" fill-rule="nonzero"/>
	<path id="Vector" d="M16.45 0C7.37 0 0 7.34 0 16.38L4.49 16.38C4.49 9.8 9.84 4.47 16.45 4.47L16.45 0ZM0 16.38C0 17.61 1.01 18.61 2.24 18.61C3.47 18.61 4.49 17.61 4.49 16.38L0 16.38ZM16.45 4.47C17.69 4.47 18.7 3.46 18.7 2.23C18.7 1 17.69 0 16.45 0L16.45 4.47Z" fill="#FC0C35" fill-opacity="1.000000" fill-rule="nonzero"/>
	<path id="Vector" d="M22.27 34.06L22.27 19.67L17.78 19.67L17.78 34.06L22.27 34.06ZM34.48 31.82L20.02 31.82L20.02 36.3L34.48 36.3L34.48 31.82ZM32.24 19.67L32.24 34.06L36.73 34.06L36.73 19.67L32.24 19.67ZM20.02 21.9L34.48 21.9L34.48 17.43L20.02 17.43L20.02 21.9ZM20.02 34.06L17.78 34.06C17.78 35.29 18.79 36.3 20.02 36.3L20.02 34.06ZM34.48 34.06L34.48 36.3C35.72 36.3 36.73 35.29 36.73 34.06L34.48 34.06ZM34.48 19.67L36.73 19.67C36.73 18.44 35.72 17.43 34.48 17.43L34.48 19.67ZM20.02 19.67L20.02 17.43C18.79 17.43 17.78 18.44 17.78 19.67L20.02 19.67Z" fill="#0076FE" fill-opacity="1.000000" fill-rule="nonzero"/>
	<path id="Vector" d="M46.65 34.06L46.65 19.67L42.16 19.67L42.16 34.06L46.65 34.06ZM58.86 31.82L44.41 31.82L44.41 36.3L58.86 36.3L58.86 31.82ZM56.62 19.67L56.62 34.06L61.11 34.06L61.11 19.67L56.62 19.67ZM44.41 21.9L58.86 21.9L58.86 17.43L44.41 17.43L44.41 21.9ZM44.41 34.06L42.16 34.06C42.16 35.29 43.17 36.3 44.41 36.3L44.41 34.06ZM58.86 34.06L58.86 36.3C60.1 36.3 61.11 35.29 61.11 34.06L58.86 34.06ZM58.86 19.67L61.11 19.67C61.11 18.44 60.1 17.43 58.86 17.43L58.86 19.67ZM44.41 19.67L44.41 17.43C43.17 17.43 42.16 18.44 42.16 19.67L44.41 19.67Z" fill="#0076FE" fill-opacity="1.000000" fill-rule="nonzero"/>
	<path id="Vector" d="M56.61 45.93L56.61 60.32L61.1 60.32L61.1 45.93L56.61 45.93ZM44.4 48.16L58.86 48.16L58.86 43.69L44.4 43.69L44.4 48.16ZM46.64 60.32L46.64 45.93L42.15 45.93L42.15 60.32L46.64 60.32ZM58.86 58.09L44.4 58.09L44.4 62.56L58.86 62.56L58.86 58.09ZM58.86 45.93L61.1 45.93C61.1 44.7 60.09 43.69 58.86 43.69L58.86 45.93ZM44.4 45.93L44.4 43.69C43.16 43.69 42.15 44.7 42.15 45.93L44.4 45.93ZM44.4 60.32L42.15 60.32C42.15 61.55 43.16 62.56 44.4 62.56L44.4 60.32ZM58.86 60.32L58.86 62.56C60.09 62.56 61.1 61.55 61.1 60.32L58.86 60.32Z" fill="#0076FE" fill-opacity="1.000000" fill-rule="nonzero"/>
	<path id="Vector" d="M32.23 45.93L32.23 60.32L36.72 60.32L36.72 45.93L32.23 45.93ZM20.01 48.16L34.47 48.16L34.47 43.69L20.01 43.69L20.01 48.16ZM22.26 60.32L22.26 45.93L17.77 45.93L17.77 60.32L22.26 60.32ZM34.47 58.09L20.01 58.09L20.01 62.56L34.47 62.56L34.47 58.09ZM34.47 45.93L36.72 45.93C36.72 44.7 35.71 43.69 34.47 43.69L34.47 45.93ZM20.01 45.93L20.01 43.69C18.78 43.69 17.77 44.7 17.77 45.93L20.01 45.93ZM20.01 60.32L17.77 60.32C17.77 61.55 18.78 62.56 20.01 62.56L20.01 60.32ZM34.47 60.32L34.47 62.56C35.71 62.56 36.72 61.55 36.72 60.32L34.47 60.32Z" fill="#0076FE" fill-opacity="1.000000" fill-rule="nonzero"/>
</svg>
