<svg width="30.000000" height="30.000000" viewBox="0 0 30 30" fill="none" xmlns="http://www.w3.org/2000/svg" xmlns:xlink="http://www.w3.org/1999/xlink">
	<desc>
			Created with Pixso.
	</desc>
	<defs>
		<clipPath id="clip2_9632">
			<rect id="akar-icons:calculator" rx="0.000000" width="29.000000" height="29.000000" transform="translate(0.500000 0.500000)" fill="white" fill-opacity="0"/>
		</clipPath>
	</defs>
	<rect id="akar-icons:calculator" rx="0.000000" width="29.000000" height="29.000000" transform="translate(0.500000 0.500000)" fill="#FFFFFF" fill-opacity="0"/>
	<g clip-path="url(#clip2_9632)">
		<path id="Vector" d="M9.5 2.5L22.5 2.5C23.82 2.5 25.09 3.02 26.03 3.96C26.97 4.9 27.5 6.17 27.5 7.5L27.5 13.75L2.5 13.75L2.5 9.5" stroke="#FFFFFF" stroke-opacity="1.000000" stroke-width="1.500000" stroke-linejoin="round" stroke-linecap="round"/>
		<path id="Vector" d="M23.12 20.62L19.37 20.62" stroke="#FFFFFF" stroke-opacity="1.000000" stroke-width="1.500000" stroke-linecap="round"/>
		<path id="Vector" d="M27.5 13.75L27.5 22.5C27.5 23.82 26.97 25.09 26.03 26.03C25.09 26.97 23.82 27.5 22.5 27.5L15 27.5L7.5 27.5C6.17 27.5 4.9 26.97 3.96 26.03C3.02 25.09 2.5 23.82 2.5 22.5L2.5 13.75L15 13.75L27.5 13.75ZM15 27.5L15 13.75" stroke="#FFFFFF" stroke-opacity="1.000000" stroke-width="1.500000" stroke-linejoin="round"/>
		<path id="Vector" d="M6.87 22.5L8.75 20.62L10.62 18.75M8.75 20.62L10.62 22.5M8.75 20.62L6.87 18.75" stroke="#FFFFFF" stroke-opacity="1.000000" stroke-width="1.500000" stroke-linecap="round"/>
	</g>
</svg>
