<svg width="50.000000" height="50.000000" viewBox="0 0 50 50" fill="none" xmlns="http://www.w3.org/2000/svg" xmlns:xlink="http://www.w3.org/1999/xlink">
	<desc>
			Created with Pixso.
	</desc>
	<defs/>
	<path id="Vector" d="M2.84 39.58L2.84 31.08L0 31.08L0 39.58L2.84 39.58ZM10.43 47.15C6.24 47.15 2.84 43.77 2.84 39.58L0 39.58C0 45.33 4.67 49.99 10.43 49.99L10.43 47.15ZM39.56 47.15L10.43 47.15L10.43 49.99L39.56 49.99L39.56 47.15ZM47.15 39.58C47.15 43.77 43.75 47.15 39.56 47.15L39.56 49.99C45.32 49.99 50 45.33 50 39.58L47.15 39.58ZM47.15 24.58L47.15 39.58L50 39.58L50 24.58L47.15 24.58ZM39.56 17.01C43.75 17.01 47.15 20.4 47.15 24.58L50 24.58C50 18.83 45.32 14.17 39.56 14.17L39.56 17.01ZM17.17 17.01L39.56 17.01L39.56 14.17L17.17 14.17L17.17 17.01ZM2.84 31.08C2.84 30.3 2.2 29.66 1.42 29.66C0.64 29.66 0 30.3 0 31.08L2.84 31.08ZM17.17 14.17C16.39 14.17 15.75 14.81 15.75 15.59C15.75 16.37 16.39 17.01 17.17 17.01L17.17 14.17Z" fill="#0076FE" fill-opacity="1.000000" fill-rule="nonzero"/>
	<path id="Vector" d="M10.43 14.17C4.67 14.17 0 18.83 0 24.58L2.84 24.58C2.84 20.4 6.24 17.01 10.43 17.01L10.43 14.17ZM0 24.58C0 25.36 0.64 26 1.42 26C2.2 26 2.84 25.36 2.84 24.58L0 24.58ZM10.43 17.01C11.21 17.01 11.85 16.37 11.85 15.59C11.85 14.81 11.21 14.17 10.43 14.17L10.43 17.01Z" fill="#FC0C35" fill-opacity="1.000000" fill-rule="nonzero"/>
	<path id="Vector" d="M25 0C19.92 0 15.8 4.11 15.8 9.18L18.64 9.18C18.64 5.67 21.48 2.84 25 2.84L25 0ZM34.2 9.18C34.2 4.11 30.08 0 25 0L25 2.84C28.51 2.84 31.35 5.67 31.35 9.18L34.2 9.18ZM15.8 9.18C15.8 9.96 16.44 10.6 17.22 10.6C18 10.6 18.64 9.96 18.64 9.18L15.8 9.18ZM31.35 9.18C31.35 9.96 31.99 10.6 32.78 10.6C33.56 10.6 34.2 9.96 34.2 9.18L31.35 9.18Z" fill="#0076FE" fill-opacity="1.000000" fill-rule="nonzero"/>
	<path id="Vector" d="M15.8 9.18L15.8 15.59L18.64 15.59L18.64 9.18L15.8 9.18ZM15.8 15.59C15.8 16.37 16.44 17.01 17.22 17.01C18 17.01 18.64 16.37 18.64 15.59L15.8 15.59ZM18.64 9.18C18.64 8.4 18 7.76 17.22 7.76C16.44 7.76 15.8 8.4 15.8 9.18L18.64 9.18Z" fill="#0076FE" fill-opacity="1.000000" fill-rule="nonzero"/>
	<path id="Vector" d="M31.35 9.18L31.35 15.59L34.2 15.59L34.2 9.18L31.35 9.18ZM31.35 15.59C31.35 16.37 31.99 17.01 32.77 17.01C33.56 17.01 34.2 16.37 34.2 15.59L31.35 15.59ZM34.2 9.18C34.2 8.4 33.56 7.76 32.77 7.76C31.99 7.76 31.35 8.4 31.35 9.18L34.2 9.18Z" fill="#0076FE" fill-opacity="1.000000" fill-rule="nonzero"/>
	<path id="Vector" d="M23.57 28.65L23.57 35.52L26.42 35.52L26.42 28.65L23.57 28.65ZM23.57 35.52C23.57 36.3 24.21 36.94 25 36.94C25.78 36.94 26.42 36.3 26.42 35.52L23.57 35.52ZM26.42 28.65C26.42 27.87 25.78 27.23 25 27.23C24.21 27.23 23.57 27.87 23.57 28.65L26.42 28.65Z" fill="#0076FE" fill-opacity="1.000000" fill-rule="nonzero"/>
	<path id="Vector" d="M25 28.23C25.23 28.23 25.42 28.41 25.42 28.65L28.26 28.65C28.26 26.84 26.8 25.39 25 25.39L25 28.23ZM24.58 28.65C24.58 28.41 24.76 28.23 25 28.23L25 25.39C23.2 25.39 21.73 26.84 21.73 28.65L24.58 28.65ZM25 29.07C24.76 29.07 24.58 28.88 24.58 28.65L21.73 28.65C21.73 30.45 23.2 31.91 25 31.91L25 29.07ZM25.42 28.65C25.42 28.88 25.23 29.07 25 29.07L25 31.91C26.8 31.91 28.26 30.45 28.26 28.65L25.42 28.65Z" fill="#0076FE" fill-opacity="1.000000" fill-rule="nonzero"/>
</svg>
