<svg width="63.036133" height="40.000000" viewBox="0 0 63.0361 40" fill="none" xmlns="http://www.w3.org/2000/svg" xmlns:xlink="http://www.w3.org/1999/xlink">
	<desc>
			Created with Pixso.
	</desc>
	<defs/>
	<path id="Vector" d="M31.47 0C22.79 0.08 15.37 5.75 12.7 13.6L14.63 14.25C17.02 7.19 23.7 2.1 31.49 2.03L31.47 0L31.47 0ZM51.67 20C51.67 8.89 42.61 -0.11 31.47 0L31.49 2.03C41.5 1.94 49.63 10.02 49.63 20L51.67 20ZM50.89 19.35C51.3 19.28 51.67 19.6 51.67 20L49.63 20C49.63 20.85 50.39 21.49 51.23 21.35L50.89 19.34L50.89 19.35ZM52.63 19.2C52.03 19.2 51.45 19.25 50.88 19.35L51.23 21.35C51.68 21.28 52.15 21.24 52.62 21.24L52.62 19.2L52.63 19.2ZM63.03 29.6C63.03 23.86 58.37 19.2 52.63 19.2L52.63 21.24C57.25 21.24 60.99 24.98 60.99 29.6L63.03 29.6ZM52.63 39.98C58.37 39.98 63.03 35.35 63.03 29.6L60.99 29.6C60.99 34.22 57.25 37.95 52.63 37.95L52.63 39.98ZM14.02 39.98L52.63 39.98L52.63 37.95L14.02 37.95L14.02 39.98ZM51.06 20.35L51.23 21.35L51.05 20.35L51.06 20.35Z" fill="#FFFFFF" fill-opacity="1.000000" fill-rule="nonzero"/>
	<path id="Vector" d="M13.41 15.21L13.41 15.21L13.41 13.18L13.41 13.18L13.41 15.21ZM5.37 18.54C7.42 16.49 10.27 15.21 13.41 15.21L13.41 13.18C9.71 13.18 6.35 14.68 3.93 17.11L5.37 18.55L5.37 18.54ZM2.04 26.58C2.04 23.44 3.3 20.6 5.37 18.55L3.93 17.11C1.5 19.53 0 22.88 0 26.59L2.03 26.59L2.04 26.58ZM5.37 34.62C3.3 32.56 2.04 29.72 2.04 26.58L0 26.58C0 30.28 1.5 33.63 3.93 36.06L5.37 34.62L5.37 34.62ZM13.41 37.95C10.27 37.95 7.43 36.69 5.37 34.62L3.93 36.06C6.35 38.49 9.7 40 13.4 40L13.4 37.96L13.41 37.95ZM21.45 34.62C19.39 36.69 16.55 37.95 13.41 37.95L13.41 39.99C17.11 39.99 20.46 38.49 22.89 36.06L21.45 34.62L21.45 34.62ZM24.78 26.58C24.78 29.72 23.52 32.56 21.45 34.62L22.89 36.06C25.32 33.64 26.82 30.29 26.82 26.59L24.79 26.59L24.78 26.58ZM13.41 15.21C19.7 15.21 24.78 20.3 24.78 26.58L26.82 26.58C26.82 19.18 20.82 13.18 13.41 13.18L13.41 15.21Z" fill="#FFFFFF" fill-opacity="1.000000" fill-rule="nonzero"/>
	<path id="Vector" d="M7.43 26.58C7.43 23.28 10.11 20.6 13.41 20.6L13.41 18.56C8.99 18.56 5.4 22.16 5.4 26.58L7.43 26.58ZM13.41 32.56C10.11 32.56 7.43 29.88 7.43 26.58L5.4 26.58C5.4 31 8.99 34.6 13.41 34.6L13.41 32.56ZM19.4 26.58C19.4 29.88 16.72 32.56 13.41 32.56L13.41 34.6C17.84 34.6 21.43 31 21.43 26.58L19.4 26.58ZM13.41 20.6C16.72 20.6 19.4 23.28 19.4 26.58L21.43 26.58C21.43 22.16 17.85 18.56 13.41 18.56L13.41 20.6Z" fill="#FFFFFF" fill-opacity="1.000000" fill-rule="nonzero"/>
	<path id="Vector" d="M11.28 26.58C11.28 25.36 12.27 24.37 13.49 24.37L13.49 22.33C11.14 22.33 9.24 24.24 9.24 26.58L11.28 26.58ZM13.49 24.37C14.05 24.37 14.51 23.91 14.51 23.35C14.51 22.79 14.05 22.33 13.49 22.33L13.49 24.37ZM9.24 26.58C9.24 27.14 9.7 27.6 10.26 27.6C10.82 27.6 11.28 27.14 11.28 26.58L9.24 26.58Z" fill="#FC0C35" fill-opacity="1.000000" fill-rule="nonzero"/>
	<path id="Vector" d="M44.02 29.75C44.02 25.06 47.81 21.27 52.5 21.27L52.5 19.23C46.69 19.23 41.98 23.94 41.98 29.75L44.02 29.75ZM52.5 21.27C53.06 21.27 53.52 20.81 53.52 20.25C53.52 19.69 53.06 19.23 52.5 19.23L52.5 21.27ZM41.98 29.75C41.98 30.31 42.44 30.77 43 30.77C43.56 30.77 44.02 30.31 44.02 29.75L41.98 29.75Z" fill="#FFFFFF" fill-opacity="1.000000" fill-rule="nonzero"/>
</svg>
