<svg width="78.524658" height="80.000000" viewBox="0 0 78.5247 80" fill="none" xmlns="http://www.w3.org/2000/svg" xmlns:xlink="http://www.w3.org/1999/xlink">
	<desc>
			Created with Pixso.
	</desc>
	<defs/>
	<path id="Vector" d="M4.47 63.61L4.47 26.63L0 26.63L0 63.61L4.47 63.61ZM16.38 75.52C9.8 75.52 4.47 70.19 4.47 63.61L0 63.61C0 72.65 7.34 80 16.38 80L16.38 75.52ZM62.14 75.52L16.38 75.52L16.38 80L62.14 80L62.14 75.52ZM74.05 63.61C74.05 70.19 68.72 75.52 62.14 75.52L62.14 80C71.18 80 78.52 72.65 78.52 63.61L74.05 63.61ZM74.05 16.38L74.05 63.61L78.52 63.61L78.52 16.38L74.05 16.38ZM62.14 4.47C68.72 4.47 74.05 9.8 74.05 16.38L78.52 16.38C78.52 7.34 71.18 0 62.14 0L62.14 4.47ZM26.97 4.47L62.14 4.47L62.14 0L26.97 0L26.97 4.47ZM4.47 26.63C4.47 25.4 3.46 24.39 2.23 24.39C1 24.39 0 25.4 0 26.63L4.47 26.63ZM26.97 0C25.75 0 24.74 1 24.74 2.23C24.74 3.46 25.75 4.47 26.97 4.47L26.97 0Z" fill="#FFFFFF" fill-opacity="1.000000" fill-rule="nonzero"/>
	<path id="Vector" d="M16.38 0C7.34 0 0 7.34 0 16.38L4.47 16.38C4.47 9.8 9.8 4.47 16.38 4.47L16.38 0ZM0 16.38C0 17.61 1 18.61 2.23 18.61C3.46 18.61 4.47 17.61 4.47 16.38L0 16.38ZM16.38 4.47C17.61 4.47 18.61 3.46 18.61 2.23C18.61 1 17.61 0 16.38 0L16.38 4.47Z" fill="#FC0C35" fill-opacity="1.000000" fill-rule="nonzero"/>
	<path id="Vector" d="M31.31 23.49C26.76 18.93 19.36 18.93 14.8 23.49L17.96 26.65C20.78 23.84 25.34 23.84 28.15 26.65L31.31 23.49ZM14.8 23.49C13.92 24.36 13.92 25.78 14.8 26.65C15.67 27.52 17.09 27.52 17.96 26.65L14.8 23.49ZM28.15 26.65C29.02 27.52 30.44 27.52 31.31 26.65C32.19 25.78 32.19 24.36 31.31 23.49L28.15 26.65Z" fill="#FFFFFF" fill-opacity="1.000000" fill-rule="nonzero"/>
	<path id="Vector" d="M60.08 23.49C55.52 18.93 48.12 18.93 43.56 23.49L46.72 26.65C49.54 23.84 54.1 23.84 56.92 26.65L60.08 23.49ZM43.56 23.49C42.69 24.36 42.69 25.78 43.56 26.65C44.43 27.52 45.85 27.52 46.72 26.65L43.56 23.49ZM56.92 26.65C57.79 27.52 59.21 27.52 60.08 26.65C60.95 25.78 60.95 24.36 60.08 23.49L56.92 26.65Z" fill="#FFFFFF" fill-opacity="1.000000" fill-rule="nonzero"/>
	<path id="Vector" d="M42.62 66.2C49.07 66.2 54.3 60.97 54.3 54.53L49.83 54.53C49.83 58.52 46.61 61.73 42.62 61.73L42.62 66.2ZM54.3 54.53C54.3 53.3 53.29 52.29 52.06 52.29C50.83 52.29 49.83 53.3 49.83 54.53L54.3 54.53ZM42.62 61.73C41.39 61.73 40.38 62.74 40.38 63.97C40.38 65.2 41.39 66.2 42.62 66.2L42.62 61.73Z" fill="#FFFFFF" fill-opacity="1.000000" fill-rule="nonzero"/>
	<path id="Vector" d="M29.72 46.59L40.89 49.24L41.91 44.89L30.75 42.24L29.72 46.59ZM36.57 31.63L28.41 43.13L32.06 45.71L40.21 34.21L36.57 31.63ZM40.89 49.24C42.08 49.52 43.29 48.78 43.58 47.59C43.87 46.39 43.12 45.18 41.92 44.89L40.9 49.24L40.89 49.24ZM30.23 44.41L28.41 43.11C27.99 43.72 27.89 44.5 28.14 45.19C28.4 45.89 28.99 46.41 29.72 46.58L30.23 44.4L30.23 44.41ZM40.21 34.21C40.93 33.2 40.7 31.8 39.69 31.09C38.68 30.37 37.29 30.61 36.57 31.61L40.21 34.2L40.21 34.21Z" fill="#FFFFFF" fill-opacity="1.000000" fill-rule="nonzero"/>
</svg>
