<svg width="47.675049" height="80.000000" viewBox="0 0 47.675 80" fill="none" xmlns="http://www.w3.org/2000/svg" xmlns:xlink="http://www.w3.org/1999/xlink">
	<desc>
			Created with Pixso.
	</desc>
	<defs/>
	<path id="Vector" d="M37.6 0L16.04 0L16.04 3.63L37.6 3.63L37.6 0ZM47.67 10.06C47.67 4.51 43.16 0 37.6 0L37.6 3.63C41.16 3.63 44.04 6.5 44.04 10.06L47.67 10.06ZM47.67 69.93L47.67 10.06L44.04 10.06L44.04 69.93L47.67 69.93ZM37.6 80C43.16 80 47.67 75.48 47.67 69.93L44.04 69.93C44.04 73.49 41.16 76.36 37.6 76.36L37.6 80ZM10.06 80L37.6 80L37.6 76.36L10.06 76.36L10.06 80ZM0 69.93C0 75.48 4.51 80 10.06 80L10.06 76.36C6.5 76.36 3.63 73.49 3.63 69.93L0 69.93ZM0 16.23L0 69.93L3.63 69.93L3.63 16.23L0 16.23ZM16.04 0C15.04 0 14.22 0.81 14.22 1.81C14.22 2.81 15.04 3.63 16.04 3.63L16.04 0ZM3.63 16.23C3.63 15.24 2.81 14.42 1.81 14.42C0.81 14.42 0 15.24 0 16.23L3.63 16.23Z" fill="#0076FE" fill-opacity="1.000000" fill-rule="nonzero"/>
</svg>
