<svg width="31.066162" height="52.129883" viewBox="0 0 31.0662 52.1299" fill="none" xmlns="http://www.w3.org/2000/svg" xmlns:xlink="http://www.w3.org/1999/xlink">
	<desc>
			Created with Pixso.
	</desc>
	<defs/>
	<path id="Vector" d="M24.5 0L10.45 0L10.45 2.36L24.5 2.36L24.5 0ZM31.06 6.55C31.06 2.93 28.12 0 24.5 0L24.5 2.36C26.82 2.36 28.7 4.24 28.7 6.55L31.06 6.55ZM31.06 45.57L31.06 6.55L28.7 6.55L28.7 45.57L31.06 45.57ZM24.5 52.12C28.12 52.12 31.06 49.19 31.06 45.57L28.7 45.57C28.7 47.88 26.82 49.76 24.5 49.76L24.5 52.12ZM6.55 52.12L24.5 52.12L24.5 49.76L6.55 49.76L6.55 52.12ZM0 45.57C0 49.19 2.93 52.12 6.55 52.12L6.55 49.76C4.24 49.76 2.36 47.88 2.36 45.57L0 45.57ZM0 10.58L0 45.57L2.36 45.57L2.36 10.58L0 10.58ZM10.45 0C9.8 0 9.26 0.53 9.26 1.18C9.26 1.83 9.8 2.36 10.45 2.36L10.45 0ZM2.36 10.58C2.36 9.93 1.83 9.39 1.18 9.39C0.53 9.39 0 9.93 0 10.58L2.36 10.58Z" fill="#0076FE" fill-opacity="1.000000" fill-rule="nonzero"/>
	<path id="Vector" d="M2.36 6.55C2.36 4.24 4.24 2.36 6.55 2.36L6.55 0C2.93 0 0 2.93 0 6.55L2.36 6.55ZM6.55 2.36C7.21 2.36 7.74 1.83 7.74 1.18C7.74 0.53 7.21 0 6.55 0L6.55 2.36ZM0 6.55C0 7.21 0.53 7.74 1.18 7.74C1.83 7.74 2.36 7.21 2.36 6.55L0 6.55Z" fill="#FC0C35" fill-opacity="1.000000" fill-rule="nonzero"/>
	<path id="Vector" d="M17.37 7.93C17.37 8.95 16.55 9.77 15.53 9.77C14.51 9.77 13.68 8.95 13.68 7.93C13.68 6.91 14.51 6.08 15.53 6.08C16.55 6.08 17.37 6.91 17.37 7.93Z" fill="#0076FE" fill-opacity="1.000000" fill-rule="evenodd"/>
	<path id="Vector" d="M22.64 18.75L8.42 18.75L8.42 21.12L22.64 21.12L22.64 18.75ZM8.42 18.75C7.77 18.75 7.24 19.28 7.24 19.94C7.24 20.59 7.77 21.12 8.42 21.12L8.42 18.75ZM22.64 21.12C23.29 21.12 23.82 20.59 23.82 19.94C23.82 19.28 23.29 18.75 22.64 18.75L22.64 21.12Z" fill="#0076FE" fill-opacity="1.000000" fill-rule="nonzero"/>
	<path id="Vector" d="M22.64 28.55L8.42 28.55L8.42 30.91L22.64 30.91L22.64 28.55ZM8.42 28.55C7.77 28.55 7.24 29.08 7.24 29.73C7.24 30.38 7.77 30.91 8.42 30.91L8.42 28.55ZM22.64 30.91C23.29 30.91 23.82 30.38 23.82 29.73C23.82 29.08 23.29 28.55 22.64 28.55L22.64 30.91Z" fill="#0076FE" fill-opacity="1.000000" fill-rule="nonzero"/>
	<path id="Vector" d="M22.64 38.34L8.42 38.34L8.42 40.71L22.64 40.71L22.64 38.34ZM8.42 38.34C7.77 38.34 7.24 38.88 7.24 39.53C7.24 40.18 7.77 40.71 8.42 40.71L8.42 38.34ZM22.64 40.71C23.29 40.71 23.82 40.18 23.82 39.53C23.82 38.88 23.29 38.34 22.64 38.34L22.64 40.71Z" fill="#0076FE" fill-opacity="1.000000" fill-rule="nonzero"/>
</svg>
