<svg width="78.873291" height="80.000000" viewBox="0 0 78.8733 80" fill="none" xmlns="http://www.w3.org/2000/svg" xmlns:xlink="http://www.w3.org/1999/xlink">
	<desc>
			Created with Pixso.
	</desc>
	<defs/>
	<path id="Vector" d="M4.49 63.61L4.49 26.63L0 26.63L0 63.61L4.49 63.61ZM16.45 75.52C9.84 75.52 4.49 70.19 4.49 63.61L0 63.61C0 72.65 7.37 80 16.45 80L16.45 75.52ZM62.41 75.52L16.45 75.52L16.45 80L62.41 80L62.41 75.52ZM74.38 63.61C74.38 70.19 69.02 75.52 62.41 75.52L62.41 80C71.49 80 78.87 72.65 78.87 63.61L74.38 63.61ZM74.38 16.38L74.38 63.61L78.87 63.61L78.87 16.38L74.38 16.38ZM62.41 4.47C69.02 4.47 74.38 9.8 74.38 16.38L78.87 16.38C78.87 7.34 71.49 0 62.41 0L62.41 4.47ZM27.09 4.47L62.41 4.47L62.41 0L27.09 0L27.09 4.47ZM4.49 26.63C4.49 25.4 3.47 24.39 2.24 24.39C1.01 24.39 0 25.4 0 26.63L4.49 26.63ZM27.09 0C25.86 0 24.85 1 24.85 2.23C24.85 3.46 25.86 4.47 27.09 4.47L27.09 0Z" fill="#0076FE" fill-opacity="1.000000" fill-rule="nonzero"/>
</svg>
