<svg width="145.997559" height="36.973022" viewBox="0 0 145.998 36.973" fill="none" xmlns="http://www.w3.org/2000/svg" xmlns:xlink="http://www.w3.org/1999/xlink">
	<desc>
			Created with Pixso.
	</desc>
	<defs>
		<clipPath id="clip1_1656">
			<rect id="_Слой_1" rx="0.000000" width="42.403049" height="35.972969" transform="translate(0.500000 0.500000)" fill="white" fill-opacity="0"/>
		</clipPath>
	</defs>
	<rect id="_Слой_1" rx="0.000000" width="42.403049" height="35.972969" transform="translate(0.500000 0.500000)" fill="#FFFFFF" fill-opacity="0"/>
	<g clip-path="url(#clip1_1656)">
		<path id="Vector" d="M40.88 0L22.24 0C20.96 0 19.97 0.98 19.97 2.27L19.97 21.76L13.2 21.76C11.92 21.76 10.91 22.68 10.91 23.81C10.91 24.95 11.93 25.87 13.2 25.87L22.24 25.87C23.48 25.87 24.47 24.89 24.47 23.64L24.47 13.57L35.5 13.57C36.64 13.57 37.55 12.66 37.55 11.52C37.55 10.38 36.64 9.47 35.5 9.47L24.47 9.47L24.47 4.11L40.88 4.11C42.02 4.11 42.92 3.19 42.92 2.05C42.92 0.92 42.01 0 40.88 0L40.88 0Z" fill="#FFFFFF" fill-opacity="1.000000" fill-rule="nonzero"/>
		<path id="Vector" d="M22.44 32.8L12.96 32.8C11.82 32.8 10.91 33.72 10.91 34.85C10.91 35.99 11.83 36.91 12.96 36.91L22.44 36.91C23.57 36.91 24.49 35.99 24.49 34.85C24.49 33.72 23.57 32.8 22.44 32.8Z" fill="#FFFFFF" fill-opacity="1.000000" fill-rule="nonzero"/>
		<path id="Vector" d="M11.87 9.48L2.39 9.48C1.26 9.48 0.35 10.4 0.35 11.53C0.35 12.67 1.26 13.59 2.39 13.59L11.87 13.59C13 13.59 13.92 12.67 13.92 11.53C13.92 10.4 13 9.48 11.87 9.48Z" fill="#FFFFFF" fill-opacity="1.000000" fill-rule="nonzero"/>
	</g>
	<path id="Vector" d="M144.35 21.25C143.34 21.25 142.67 20.35 142.67 18.99L142.67 18.73C142.67 17.35 143.3 16.46 144.34 16.46C145.38 16.46 145.99 17.38 145.99 18.72L145.99 18.98C145.99 20.34 145.39 21.25 144.35 21.25ZM144.35 20.78C145.09 20.78 145.47 20.17 145.47 18.97L145.47 18.71C145.47 17.63 145.05 16.92 144.34 16.92C143.63 16.92 143.19 17.57 143.19 18.72L143.19 18.99C143.19 20.17 143.64 20.78 144.35 20.78ZM141.7 21.23C141.49 21.23 141.32 21.04 141.32 20.81C141.32 20.57 141.49 20.39 141.7 20.39C141.91 20.39 142.08 20.57 142.08 20.81C142.08 21.04 141.91 21.23 141.7 21.23ZM137.67 21.19L137.67 21.06L139.36 19.11C139.75 18.66 139.97 18.23 139.97 17.75C139.97 17.23 139.69 16.92 139.21 16.92C138.73 16.92 138.4 17.22 138.32 17.95L137.84 17.95C137.9 17.04 138.41 16.46 139.21 16.46C140.02 16.46 140.49 16.97 140.49 17.77C140.49 18.34 140.16 18.9 139.64 19.47L138.47 20.72L140.52 20.72L140.52 21.18L137.67 21.18L137.67 21.19Z" fill="#FFFFFF" fill-opacity="1.000000" fill-rule="nonzero"/>
	<path id="Vector" d="M53.84 30.04C54.43 30.04 54.9 29.52 54.9 28.87L54.9 24.46L60.18 24.46C60.72 24.46 61.16 23.97 61.16 23.38C61.16 22.79 60.72 22.31 60.18 22.31L54.9 22.31L54.9 18.63L60.97 18.63C61.51 18.63 61.94 18.15 61.94 17.56C61.94 16.96 61.5 16.48 60.97 16.48L53.84 16.48C53.22 16.48 52.76 17 52.76 17.67L52.76 28.88C52.76 29.53 53.23 30.05 53.84 30.05L53.84 30.04Z" fill="#FFFFFF" fill-opacity="1.000000" fill-rule="nonzero"/>
	<path id="Vector" d="M66 24.59L68.15 19.15L70.3 24.59L66 24.59L66 24.59ZM74.17 28.91C74.17 28.75 74.14 28.58 74.05 28.4L69.51 17.24C69.26 16.64 68.85 16.28 68.23 16.28L68.13 16.28C67.51 16.28 67.08 16.64 66.83 17.24L62.3 28.4C62.21 28.6 62.16 28.77 62.16 28.94C62.16 29.56 62.59 30.04 63.15 30.04C63.6 30.04 63.97 29.77 64.14 29.29L65.17 26.69L71.11 26.69L72.11 29.22C72.3 29.72 72.65 30.04 73.15 30.04C73.73 30.04 74.17 29.54 74.17 28.91L74.17 28.91Z" fill="#FFFFFF" fill-opacity="1.000000" fill-rule="nonzero"/>
	<path id="Vector" d="M81.65 30.17C83.63 30.17 84.94 29.48 86.09 28.36C86.29 28.17 86.44 27.88 86.44 27.52C86.44 26.92 85.97 26.42 85.43 26.42C85.17 26.42 84.94 26.54 84.78 26.69C83.89 27.52 83.02 27.98 81.72 27.98C79.38 27.98 77.69 25.84 77.69 23.21L77.69 23.17C77.69 20.53 79.4 18.41 81.72 18.41C82.89 18.41 83.8 18.88 84.64 19.63C84.78 19.74 84.99 19.86 85.29 19.86C85.88 19.86 86.35 19.35 86.35 18.7C86.35 18.28 86.16 17.95 85.93 17.76C84.87 16.86 83.63 16.24 81.74 16.24C78.04 16.24 75.43 19.38 75.43 23.21L75.43 23.24C75.43 27.11 78.09 30.17 81.65 30.17Z" fill="#FFFFFF" fill-opacity="1.000000" fill-rule="nonzero"/>
	<path id="Vector" d="M89.94 29.95L97.14 29.95C97.67 29.95 98.1 29.48 98.1 28.89C98.1 28.29 97.66 27.83 97.14 27.83L91.01 27.83L91.01 24.21L96.27 24.21C96.8 24.21 97.23 23.75 97.23 23.17C97.23 22.6 96.79 22.1 96.27 22.1L91.01 22.1L91.01 18.59L97.05 18.59C97.58 18.59 98.01 18.13 98.01 17.54C98.01 16.94 97.57 16.48 97.05 16.48L89.94 16.48C89.33 16.48 88.86 17 88.86 17.67L88.86 28.76C88.86 29.43 89.34 29.95 89.94 29.95L89.94 29.95Z" fill="#FFFFFF" fill-opacity="1.000000" fill-rule="nonzero"/>
	<path id="Vector" d="M105.74 18.67L108.73 18.67C109.27 18.67 109.71 18.16 109.71 17.57C109.71 16.98 109.27 16.47 108.73 16.47L100.61 16.47C100.05 16.47 99.61 16.98 99.61 17.57C99.61 18.16 100.05 18.67 100.61 18.67L103.58 18.67L103.58 28.87C103.58 29.53 104.07 30.05 104.66 30.05C105.25 30.05 105.74 29.52 105.74 28.87L105.74 18.67Z" fill="#FFFFFF" fill-opacity="1.000000" fill-rule="nonzero"/>
	<path id="Vector" d="M112.97 29.95L120.17 29.95C120.7 29.95 121.13 29.48 121.13 28.89C121.13 28.3 120.69 27.83 120.17 27.83L114.04 27.83L114.04 24.21L119.3 24.21C119.83 24.21 120.26 23.75 120.26 23.18C120.26 22.6 119.82 22.1 119.3 22.1L114.04 22.1L114.04 18.6L120.08 18.6C120.61 18.6 121.04 18.13 121.04 17.54C121.04 16.94 120.6 16.48 120.08 16.48L112.97 16.48C112.36 16.48 111.89 17 111.89 17.67L111.89 28.76C111.89 29.44 112.36 29.95 112.97 29.95L112.97 29.95L112.97 29.95Z" fill="#FFFFFF" fill-opacity="1.000000" fill-rule="nonzero"/>
	<path id="Vector" d="M131.41 20.9C131.41 22.27 130.43 23.15 128.89 23.15L125.75 23.15L125.75 18.62L128.88 18.62C130.47 18.62 131.41 19.41 131.41 20.85L131.41 20.89L131.41 20.9ZM133.59 20.77L133.59 20.73C133.59 19.56 133.22 18.56 132.58 17.82C131.79 16.98 130.59 16.48 129.05 16.48L124.68 16.48C124.07 16.48 123.6 17 123.6 17.67L123.6 28.87C123.6 29.53 124.07 30.05 124.68 30.05C125.29 30.05 125.75 29.53 125.75 28.87L125.75 25.26L128.46 25.26L131.43 29.43C131.67 29.8 131.99 30.05 132.48 30.05C133 30.05 133.5 29.61 133.5 28.96C133.5 28.59 133.37 28.34 133.16 28.05L130.82 24.8C132.46 24.24 133.59 22.93 133.59 20.78L133.59 20.77Z" fill="#FFFFFF" fill-opacity="1.000000" fill-rule="nonzero"/>
</svg>
