<svg width="41.172852" height="53.000000" viewBox="0 0 41.1729 53" fill="none" xmlns="http://www.w3.org/2000/svg" xmlns:xlink="http://www.w3.org/1999/xlink">
	<desc>
			Created with Pixso.
	</desc>
	<defs/>
	<path id="Vector" d="M27.84 39.75L28.66 39.85L28.95 37.59L28.13 37.49L27.84 39.75ZM20.64 41.18C23.38 41.18 26.02 40.64 28.41 39.67L27.56 37.56C25.43 38.42 23.09 38.9 20.64 38.9L20.64 41.17L20.64 41.18ZM12.86 39.67C15.27 40.64 17.9 41.18 20.64 41.18L20.64 38.9C18.19 38.9 15.86 38.42 13.72 37.56L12.86 39.68L12.86 39.67ZM12.4 39.76L13.29 39.76L13.29 37.48L12.4 37.48L12.4 39.76ZM5.11 48.33L13.24 39.38L11.56 37.85L3.43 46.8L5.11 48.33ZM8.47 50.5L5.11 46.8L3.43 48.33L6.79 52.03L8.47 50.5ZM20.55 43.93C15.08 43.93 10.17 46.49 6.76 50.53L8.5 52C11.53 48.41 15.82 46.21 20.55 46.21L20.55 43.93ZM34.35 50.53C30.93 46.49 26.03 43.93 20.55 43.93L20.55 46.21C25.29 46.21 29.58 48.41 32.61 52L34.35 50.53ZM35.99 46.8L32.64 50.5L34.32 52.03L37.68 48.33L35.99 46.8ZM27.96 39.49L35.99 48.33L37.68 46.8L29.65 37.96L27.96 39.49ZM28.81 38.72L29.94 38.72L29.94 37.71L28.95 37.59L28.81 38.71L28.81 38.72ZM27.99 38.62L28.13 37.49L27.83 37.46L27.56 37.57L27.99 38.62L27.99 38.62ZM13.29 38.62L13.72 37.56L13.51 37.48L13.29 37.48L13.29 38.62ZM12.4 38.62L12.4 37.48L11.89 37.48L11.55 37.86L12.39 38.62L12.4 38.62ZM4.27 47.57L3.43 46.81L2.73 47.57L3.43 48.33L4.27 47.57ZM7.63 51.27L6.79 52.03L7.66 53L8.49 52L7.62 51.27L7.63 51.27ZM33.48 51.27L32.61 52L33.45 53L34.32 52.03L33.47 51.27L33.48 51.27ZM36.84 47.57L37.68 48.33L38.37 47.57L37.68 46.81L36.84 47.57ZM28.81 38.73L27.67 38.73L27.67 39.16L27.96 39.49L28.81 38.73Z" fill="#0076FE" fill-opacity="1.000000" fill-rule="nonzero"/>
	<path id="Vector" d="M2.27 20.58C2.27 10.47 10.47 2.27 20.58 2.27L20.58 0C9.22 0 0 9.22 0 20.58L2.27 20.58ZM20.58 38.89C10.47 38.89 2.27 30.7 2.27 20.58L0 20.58C0 31.95 9.22 41.17 20.58 41.17L20.58 38.89ZM38.89 20.58C38.89 30.7 30.7 38.89 20.58 38.89L20.58 41.17C31.95 41.17 41.17 31.95 41.17 20.58L38.89 20.58ZM20.58 2.27C30.7 2.27 38.89 10.47 38.89 20.58L41.17 20.58C41.17 9.22 31.95 0 20.58 0L20.58 2.27Z" fill="#0076FE" fill-opacity="1.000000" fill-rule="nonzero"/>
	<path id="Vector" d="M20.58 10.73C26.03 10.73 30.44 15.14 30.44 20.58L32.71 20.58C32.71 13.88 27.28 8.45 20.58 8.45L20.58 10.73ZM10.73 20.58C10.73 15.14 15.14 10.73 20.58 10.73L20.58 8.45C13.89 8.45 8.46 13.88 8.46 20.58L10.73 20.58ZM20.58 30.43C15.14 30.43 10.73 26.02 10.73 20.58L8.46 20.58C8.46 27.28 13.89 32.71 20.58 32.71L20.58 30.43ZM30.44 20.58C30.44 26.02 26.03 30.43 20.58 30.43L20.58 32.71C27.28 32.71 32.71 27.28 32.71 20.58L30.44 20.58Z" fill="#0076FE" fill-opacity="1.000000" fill-rule="nonzero"/>
	<path id="Vector" d="M16.76 20.58C16.76 18.41 18.52 16.65 20.7 16.65L20.7 14.37C17.27 14.37 14.49 17.16 14.49 20.58L16.76 20.58ZM20.7 16.65C21.32 16.65 21.84 16.14 21.84 15.51C21.84 14.88 21.32 14.37 20.7 14.37L20.7 16.65ZM14.49 20.58C14.49 21.21 15 21.72 15.63 21.72C16.25 21.72 16.76 21.21 16.76 20.58L14.49 20.58Z" fill="#FC0C35" fill-opacity="1.000000" fill-rule="nonzero"/>
</svg>
