<svg width="40.000000" height="40.000000" viewBox="0 0 40 40" fill="none" xmlns="http://www.w3.org/2000/svg" xmlns:xlink="http://www.w3.org/1999/xlink">
	<desc>
			Created with Pixso.
	</desc>
	<defs/>
	<path id="Vector" d="M20 37.97C15.4 37.97 10.79 36.21 7.29 32.7L5.86 34.13C9.76 38.04 14.89 40 20 40L20 37.97L20 37.97ZM32.71 32.7C29.2 36.21 24.6 37.97 20 37.97L20 39.99C25.12 39.99 30.23 38.03 34.14 34.13L32.71 32.7L32.71 32.7ZM37.97 20C37.97 24.6 36.22 29.19 32.71 32.7L34.14 34.13C38.04 30.23 39.99 25.12 39.99 20L37.97 20L37.97 20ZM32.7 7.29C36.21 10.8 37.97 15.39 37.97 20L40 20C39.99 14.88 38.04 9.76 34.14 5.86L32.71 7.29L32.7 7.29ZM19.99 2.02C24.59 2.02 29.2 3.78 32.7 7.29L34.13 5.86C30.23 1.95 25.11 0 19.99 0L19.99 2.02L19.99 2.02ZM7.29 7.28C10.79 3.78 15.39 2.02 19.99 2.02L19.99 0C14.88 0 9.76 1.95 5.86 5.86L7.29 7.29L7.29 7.28ZM7.29 32.69C0.26 25.68 0.26 14.3 7.29 7.28L5.85 5.85C-1.96 13.66 -1.96 26.32 5.85 34.12L7.29 32.69ZM6.57 33.41L5.56 33.41L5.56 33.83L5.85 34.13L6.57 33.42L6.57 33.41ZM33.42 33.41L34.14 34.12L33.42 33.41L33.42 33.41ZM6.57 33.41L7.58 33.41L7.58 32.99L7.29 32.69L6.57 33.4L6.57 33.41Z" fill="#0076FE" fill-opacity="1.000000" fill-rule="nonzero"/>
	<path id="Vector" d="M26.87 26.86C23.07 30.66 16.92 30.66 13.12 26.86L11.69 28.29C16.28 32.88 23.71 32.88 28.3 28.29L26.87 26.86ZM26.87 13.12C30.67 16.92 30.67 23.07 26.87 26.86L28.3 28.29C32.89 23.71 32.89 16.28 28.3 11.69L26.87 13.12ZM13.12 13.12C16.92 9.33 23.07 9.33 26.87 13.12L28.3 11.69C23.71 7.11 16.28 7.11 11.69 11.69L13.12 13.12ZM13.12 26.86C9.33 23.07 9.33 16.92 13.12 13.12L11.69 11.69C7.1 16.28 7.1 23.71 11.69 28.29L13.12 26.86Z" fill="#0076FE" fill-opacity="1.000000" fill-rule="nonzero"/>
	<path id="Vector" d="M22.7 22.69C21.16 24.23 18.67 24.23 17.13 22.69L15.69 24.13C18.02 26.45 21.8 26.45 24.13 24.13L22.7 22.69ZM17.13 22.69C16.73 22.3 16.09 22.3 15.69 22.69C15.3 23.09 15.3 23.73 15.69 24.13L17.13 22.69ZM24.13 24.13C24.53 23.73 24.53 23.09 24.13 22.69C23.74 22.3 23.1 22.3 22.7 22.69L24.13 24.13Z" fill="#FC0C35" fill-opacity="1.000000" fill-rule="nonzero"/>
</svg>
