<svg width="15.000977" height="18.000000" viewBox="0 0 15.001 18" fill="none" xmlns="http://www.w3.org/2000/svg" xmlns:xlink="http://www.w3.org/1999/xlink">
	<desc>
			Created with Pixso.
	</desc>
	<defs/>
	<path id="Vector" d="M14.77 9.96C14.7 9.89 14.62 9.84 14.53 9.8C14.44 9.76 14.34 9.74 14.24 9.74C14.14 9.74 14.04 9.76 13.95 9.8C13.86 9.84 13.78 9.89 13.71 9.96L8.29 15.43L8.17 0.75C8.16 0.55 8.08 0.36 7.94 0.21C7.8 0.07 7.61 0 7.41 0C7.21 0 7.02 0.07 6.88 0.21C6.74 0.36 6.66 0.55 6.67 0.75L6.79 15.43L1.27 9.96C1.13 9.82 0.94 9.74 0.74 9.74C0.54 9.74 0.35 9.82 0.21 9.96C0.07 10.1 -0.01 10.3 0 10.49C0 10.69 0.08 10.88 0.22 11.03L7.02 17.78C7.1 17.84 7.18 17.9 7.27 17.94C7.36 17.98 7.46 18 7.56 18C7.66 18 7.75 17.98 7.84 17.94C7.93 17.9 8.02 17.84 8.09 17.78L14.78 11.03C14.85 10.96 14.9 10.87 14.94 10.78C14.98 10.69 15 10.59 15 10.49C15 10.4 14.98 10.3 14.94 10.21C14.9 10.12 14.84 10.03 14.77 9.96Z" fill="#0076FE" fill-opacity="1.000000" fill-rule="nonzero"/>
</svg>
