<svg width="78.524658" height="80.000000" viewBox="0 0 78.5247 80" fill="none" xmlns="http://www.w3.org/2000/svg" xmlns:xlink="http://www.w3.org/1999/xlink">
	<desc>
			Created with Pixso.
	</desc>
	<defs/>
	<path id="Vector" d="M4.47 63.61L4.47 26.63L0 26.63L0 63.61L4.47 63.61ZM16.38 75.52C9.8 75.52 4.47 70.19 4.47 63.61L0 63.61C0 72.65 7.34 80 16.38 80L16.38 75.52ZM62.14 75.52L16.38 75.52L16.38 80L62.14 80L62.14 75.52ZM74.05 63.61C74.05 70.19 68.72 75.52 62.14 75.52L62.14 80C71.18 80 78.52 72.65 78.52 63.61L74.05 63.61ZM74.05 16.38L74.05 63.61L78.52 63.61L78.52 16.38L74.05 16.38ZM62.14 4.47C68.72 4.47 74.05 9.8 74.05 16.38L78.52 16.38C78.52 7.34 71.18 0 62.14 0L62.14 4.47ZM26.97 4.47L62.14 4.47L62.14 0L26.97 0L26.97 4.47ZM4.47 26.63C4.47 25.4 3.46 24.39 2.23 24.39C1 24.39 0 25.4 0 26.63L4.47 26.63ZM26.97 0C25.75 0 24.74 1 24.74 2.23C24.74 3.46 25.75 4.47 26.97 4.47L26.97 0Z" fill="#FFFFFF" fill-opacity="1.000000" fill-rule="nonzero"/>
</svg>
