<svg width="19.420898" height="25.000000" viewBox="0 0 19.4209 25" fill="none" xmlns="http://www.w3.org/2000/svg" xmlns:xlink="http://www.w3.org/1999/xlink">
	<desc>
			Created with Pixso.
	</desc>
	<defs/>
	<path id="Vector" d="M13.13 18.74L13.51 18.79L13.65 17.73L13.26 17.68L13.13 18.74ZM9.73 19.42C11.02 19.42 12.27 19.17 13.4 18.71L12.99 17.71C11.99 18.12 10.88 18.34 9.73 18.34L9.73 19.42L9.73 19.42ZM6.06 18.71C7.2 19.17 8.44 19.42 9.73 19.42L9.73 18.35C8.58 18.35 7.47 18.12 6.46 17.72L6.06 18.71L6.06 18.71ZM5.84 18.75L6.26 18.75L6.26 17.68L5.84 17.68L5.84 18.75ZM2.41 22.8L6.24 18.57L5.44 17.85L1.61 22.07L2.41 22.8ZM3.99 23.82L2.41 22.07L1.61 22.8L3.19 24.54L3.99 23.82ZM9.69 20.72C7.11 20.72 4.79 21.93 3.18 23.83L4 24.52C5.43 22.83 7.45 21.79 9.69 21.79L9.69 20.72ZM16.2 23.83C14.59 21.93 12.27 20.72 9.69 20.72L9.69 21.79C11.92 21.79 13.95 22.83 15.37 24.52L16.2 23.83ZM16.97 22.07L15.39 23.82L16.18 24.54L17.77 22.8L16.97 22.07ZM13.18 18.62L16.97 22.8L17.77 22.07L13.98 17.9L13.18 18.62ZM13.58 18.26L14.12 18.26L14.12 17.79L13.65 17.73L13.58 18.26L13.58 18.26ZM13.2 18.21L13.26 17.68L13.12 17.67L12.99 17.72L13.2 18.22L13.2 18.21ZM6.26 18.21L6.46 17.72L6.37 17.68L6.26 17.68L6.26 18.21ZM5.84 18.21L5.84 17.68L5.6 17.68L5.44 17.85L5.84 18.21L5.84 18.21ZM2.01 22.44L1.61 22.08L1.28 22.44L1.61 22.8L2.01 22.44ZM3.59 24.18L3.19 24.54L3.61 24.99L4 24.53L3.59 24.18L3.59 24.18ZM15.79 24.18L15.37 24.53L15.77 24.99L16.18 24.54L15.78 24.18L15.79 24.18ZM17.37 22.44L17.77 22.8L18.09 22.44L17.77 22.08L17.37 22.44ZM13.58 18.26L13.04 18.26L13.04 18.47L13.18 18.62L13.58 18.26Z" fill="#FFFFFF" fill-opacity="1.000000" fill-rule="nonzero"/>
	<path id="Vector" d="M1.07 9.71C1.07 4.93 4.93 1.07 9.71 1.07L9.71 0C4.34 0 0 4.34 0 9.71L1.07 9.71ZM9.71 18.34C4.93 18.34 1.07 14.48 1.07 9.71L0 9.71C0 15.07 4.34 19.42 9.71 19.42L9.71 18.34ZM18.34 9.71C18.34 14.48 14.48 18.34 9.71 18.34L9.71 19.42C15.07 19.42 19.42 15.07 19.42 9.71L18.34 9.71ZM9.71 1.07C14.48 1.07 18.34 4.93 18.34 9.71L19.42 9.71C19.42 4.34 15.07 0 9.71 0L9.71 1.07Z" fill="#FFFFFF" fill-opacity="1.000000" fill-rule="nonzero"/>
	<path id="Vector" d="M9.71 5.06C12.28 5.06 14.36 7.14 14.36 9.71L15.43 9.71C15.43 6.55 12.87 3.98 9.71 3.98L9.71 5.06ZM5.06 9.71C5.06 7.14 7.14 5.06 9.71 5.06L9.71 3.98C6.55 3.98 3.99 6.55 3.99 9.71L5.06 9.71ZM9.71 14.35C7.14 14.35 5.06 12.27 5.06 9.71L3.99 9.71C3.99 12.87 6.55 15.43 9.71 15.43L9.71 14.35ZM14.36 9.71C14.36 12.27 12.28 14.35 9.71 14.35L9.71 15.43C12.87 15.43 15.43 12.87 15.43 9.71L14.36 9.71Z" fill="#FFFFFF" fill-opacity="1.000000" fill-rule="nonzero"/>
	<path id="Vector" d="M7.91 9.71C7.91 8.68 8.73 7.85 9.76 7.85L9.76 6.78C8.14 6.78 6.83 8.09 6.83 9.71L7.91 9.71ZM9.76 7.85C10.06 7.85 10.3 7.61 10.3 7.31C10.3 7.02 10.06 6.78 9.76 6.78L9.76 7.85ZM6.83 9.71C6.83 10 7.07 10.24 7.37 10.24C7.66 10.24 7.91 10 7.91 9.71L6.83 9.71Z" fill="#FFFFFF" fill-opacity="1.000000" fill-rule="nonzero"/>
</svg>
