<svg width="145.998047" height="36.973145" viewBox="0 0 145.998 36.9731" fill="none" xmlns="http://www.w3.org/2000/svg" xmlns:xlink="http://www.w3.org/1999/xlink">
	<desc>
			Created with Pixso.
	</desc>
	<defs>
		<clipPath id="clip5_1667">
			<rect id="_Слой_1" rx="0.000000" width="42.403049" height="35.972969" transform="translate(0.500000 0.500000)" fill="white" fill-opacity="0"/>
		</clipPath>
	</defs>
	<rect id="_Слой_1" rx="0.000000" width="42.403049" height="35.972969" transform="translate(0.500000 0.500000)" fill="#FFFFFF" fill-opacity="0"/>
	<g clip-path="url(#clip5_1667)">
		<path id="Vector" d="M40.88 0L22.24 0C20.96 0 19.97 0.98 19.97 2.27L19.97 21.76L13.2 21.76C11.92 21.76 10.91 22.68 10.91 23.81C10.91 24.95 11.93 25.87 13.2 25.87L22.24 25.87C23.48 25.87 24.47 24.89 24.47 23.64L24.47 13.57L35.5 13.57C36.64 13.57 37.55 12.66 37.55 11.52C37.55 10.38 36.64 9.47 35.5 9.47L24.47 9.47L24.47 4.11L40.88 4.11C42.01 4.11 42.92 3.19 42.92 2.05C42.92 0.92 42.01 0 40.88 0L40.88 0Z" fill="#002033" fill-opacity="1.000000" fill-rule="nonzero"/>
		<path id="Vector" d="M22.44 32.8L12.96 32.8C11.82 32.8 10.91 33.72 10.91 34.85C10.91 35.99 11.83 36.91 12.96 36.91L22.44 36.91C23.57 36.91 24.49 35.99 24.49 34.85C24.49 33.72 23.57 32.8 22.44 32.8Z" fill="#002033" fill-opacity="1.000000" fill-rule="nonzero"/>
		<path id="Vector" d="M11.87 9.48L2.39 9.48C1.26 9.48 0.35 10.4 0.35 11.53C0.35 12.67 1.26 13.59 2.39 13.59L11.87 13.59C13 13.59 13.92 12.67 13.92 11.53C13.92 10.4 13 9.48 11.87 9.48Z" fill="#002033" fill-opacity="1.000000" fill-rule="nonzero"/>
	</g>
	<path id="Vector" d="M144.35 16.61C143.34 16.61 142.67 15.79 142.67 14.56L142.67 14.32C142.67 13.07 143.3 12.26 144.34 12.26C145.38 12.26 145.99 13.09 145.99 14.31L145.99 14.54C145.99 15.78 145.39 16.61 144.35 16.61ZM144.35 16.18C145.09 16.18 145.47 15.63 145.47 14.54L145.47 14.3C145.47 13.32 145.05 12.67 144.34 12.67C143.63 12.67 143.19 13.26 143.19 14.31L143.19 14.55C143.19 15.63 143.64 16.18 144.35 16.18ZM141.7 16.59C141.49 16.59 141.32 16.42 141.32 16.21C141.32 15.99 141.49 15.83 141.7 15.83C141.91 15.83 142.08 15.99 142.08 16.21C142.08 16.42 141.91 16.59 141.7 16.59ZM137.67 16.56L137.67 16.44L139.36 14.66C139.75 14.25 139.97 13.86 139.97 13.43C139.97 12.95 139.69 12.67 139.21 12.67C138.73 12.67 138.4 12.94 138.32 13.61L137.84 13.61C137.9 12.78 138.41 12.25 139.21 12.25C140.02 12.25 140.49 12.71 140.49 13.44C140.49 13.97 140.16 14.47 139.64 14.99L138.47 16.13L140.52 16.13L140.52 16.55L137.67 16.55L137.67 16.56Z" fill="#002033" fill-opacity="1.000000" fill-rule="nonzero"/>
	<path id="Vector" d="M53.84 24.61C54.43 24.61 54.91 24.13 54.91 23.54L54.91 19.53L60.18 19.53C60.72 19.53 61.16 19.09 61.16 18.55C61.16 18.01 60.72 17.57 60.18 17.57L54.91 17.57L54.91 14.23L60.97 14.23C61.51 14.23 61.94 13.79 61.94 13.25C61.94 12.71 61.5 12.27 60.97 12.27L53.84 12.27C53.22 12.27 52.76 12.75 52.76 13.36L52.76 23.55C52.76 24.14 53.23 24.62 53.84 24.62L53.84 24.61Z" fill="#002033" fill-opacity="1.000000" fill-rule="nonzero"/>
	<path id="Vector" d="M66 19.65L68.15 14.7L70.3 19.65L66 19.65L66 19.65ZM74.17 23.57C74.17 23.43 74.14 23.27 74.05 23.12L69.51 12.96C69.26 12.42 68.85 12.09 68.23 12.09L68.13 12.09C67.51 12.09 67.08 12.42 66.83 12.96L62.3 23.12C62.21 23.29 62.16 23.45 62.16 23.61C62.16 24.17 62.59 24.6 63.15 24.6C63.6 24.6 63.97 24.36 64.14 23.92L65.17 21.56L71.11 21.56L72.11 23.85C72.3 24.31 72.65 24.6 73.15 24.6C73.73 24.6 74.17 24.15 74.17 23.57L74.17 23.57Z" fill="#002033" fill-opacity="1.000000" fill-rule="nonzero"/>
	<path id="Vector" d="M81.65 24.73C83.63 24.73 84.94 24.1 86.09 23.08C86.29 22.9 86.44 22.64 86.44 22.31C86.44 21.77 85.97 21.31 85.43 21.31C85.17 21.31 84.94 21.42 84.78 21.56C83.89 22.31 83.02 22.73 81.72 22.73C79.38 22.73 77.69 20.79 77.69 18.39L77.69 18.35C77.69 15.96 79.4 14.03 81.72 14.03C82.89 14.03 83.8 14.45 84.64 15.13C84.78 15.24 84.99 15.34 85.29 15.34C85.88 15.34 86.35 14.89 86.35 14.29C86.35 13.9 86.16 13.61 85.93 13.44C84.87 12.61 83.63 12.05 81.74 12.05C78.04 12.05 75.43 14.91 75.43 18.39L75.43 18.42C75.43 21.94 78.09 24.73 81.65 24.73Z" fill="#002033" fill-opacity="1.000000" fill-rule="nonzero"/>
	<path id="Vector" d="M89.94 24.52L97.14 24.52C97.67 24.52 98.1 24.1 98.1 23.56C98.1 23.02 97.66 22.59 97.14 22.59L91.01 22.59L91.01 19.3L96.27 19.3C96.8 19.3 97.23 18.88 97.23 18.36C97.23 17.84 96.79 17.38 96.27 17.38L91.01 17.38L91.01 14.19L97.05 14.19C97.58 14.19 98.01 13.77 98.01 13.23C98.01 12.69 97.57 12.27 97.05 12.27L89.94 12.27C89.33 12.27 88.86 12.74 88.86 13.35L88.86 23.44C88.86 24.05 89.34 24.52 89.94 24.52L89.94 24.52Z" fill="#002033" fill-opacity="1.000000" fill-rule="nonzero"/>
	<path id="Vector" d="M105.74 14.26L108.73 14.26C109.27 14.26 109.71 13.8 109.71 13.26C109.71 12.72 109.27 12.27 108.73 12.27L100.61 12.27C100.05 12.27 99.61 12.72 99.61 13.26C99.61 13.8 100.05 14.26 100.61 14.26L103.58 14.26L103.58 23.54C103.58 24.14 104.07 24.61 104.66 24.61C105.25 24.61 105.74 24.13 105.74 23.54L105.74 14.26Z" fill="#002033" fill-opacity="1.000000" fill-rule="nonzero"/>
	<path id="Vector" d="M112.97 24.52L120.17 24.52C120.7 24.52 121.13 24.1 121.13 23.56C121.13 23.02 120.69 22.6 120.17 22.6L114.04 22.6L114.04 19.31L119.3 19.31C119.83 19.31 120.26 18.88 120.26 18.36C120.26 17.84 119.82 17.38 119.3 17.38L114.04 17.38L114.04 14.2L120.08 14.2C120.61 14.2 121.04 13.77 121.04 13.23C121.04 12.69 120.6 12.27 120.08 12.27L112.97 12.27C112.36 12.27 111.89 12.75 111.89 13.36L111.89 23.44C111.89 24.06 112.36 24.52 112.97 24.52L112.97 24.52L112.97 24.52Z" fill="#002033" fill-opacity="1.000000" fill-rule="nonzero"/>
	<path id="Vector" d="M131.41 16.29C131.41 17.53 130.43 18.34 128.89 18.34L125.75 18.34L125.75 14.22L128.88 14.22C130.47 14.22 131.41 14.94 131.41 16.25L131.41 16.28L131.41 16.29ZM133.59 16.17L133.59 16.14C133.59 15.07 133.22 14.16 132.58 13.49C131.79 12.72 130.59 12.27 129.05 12.27L124.68 12.27C124.07 12.27 123.6 12.74 123.6 13.35L123.6 23.54C123.6 24.14 124.07 24.61 124.68 24.61C125.29 24.61 125.75 24.14 125.75 23.54L125.75 20.25L128.46 20.25L131.43 24.05C131.67 24.39 131.99 24.61 132.48 24.61C133 24.61 133.5 24.21 133.5 23.62C133.5 23.28 133.37 23.06 133.16 22.8L130.81 19.84C132.46 19.33 133.59 18.14 133.59 16.18L133.59 16.17Z" fill="#002033" fill-opacity="1.000000" fill-rule="nonzero"/>
</svg>
