<svg width="113.000000" height="25.000000" viewBox="0 0 113 25" fill="none" xmlns="http://www.w3.org/2000/svg" xmlns:xlink="http://www.w3.org/1999/xlink">
	<desc>
			Created with Pixso.
	</desc>
	<defs/>
	<path id="Star 5" d="M11.55 2.71L9.78 7.79C9.65 8.19 9.28 8.46 8.86 8.46L3.48 8.57C2.54 8.59 2.14 9.8 2.9 10.37L7.19 13.62C7.52 13.87 7.66 14.31 7.54 14.71L5.98 19.85C5.71 20.76 6.73 21.51 7.51 20.96L11.92 17.89C12.27 17.65 12.72 17.65 13.07 17.89L17.48 20.96C18.26 21.51 19.28 20.76 19.01 19.85L17.45 14.71C17.33 14.31 17.47 13.87 17.8 13.62L22.09 10.37C22.85 9.8 22.46 8.59 21.51 8.57L16.13 8.46C15.71 8.46 15.34 8.19 15.21 7.79L13.44 2.71C13.13 1.82 11.86 1.82 11.55 2.71Z" fill="#FFC700" fill-opacity="1.000000" fill-rule="evenodd"/>
	<path id="Star 6" d="M33.55 2.71L31.78 7.79C31.65 8.19 31.28 8.46 30.86 8.46L25.48 8.57C24.54 8.59 24.14 9.8 24.9 10.37L29.19 13.62C29.52 13.87 29.66 14.31 29.54 14.71L27.98 19.85C27.71 20.76 28.73 21.51 29.51 20.96L33.92 17.89C34.27 17.65 34.72 17.65 35.07 17.89L39.48 20.96C40.26 21.51 41.28 20.76 41.01 19.85L39.45 14.71C39.33 14.31 39.47 13.87 39.8 13.62L44.09 10.37C44.85 9.8 44.46 8.59 43.51 8.57L38.13 8.46C37.71 8.46 37.34 8.19 37.21 7.79L35.44 2.71C35.13 1.82 33.86 1.82 33.55 2.71Z" fill="#FFC700" fill-opacity="1.000000" fill-rule="evenodd"/>
	<path id="Star 7" d="M55.55 2.71L53.78 7.79C53.65 8.19 53.28 8.46 52.86 8.46L47.48 8.57C46.54 8.59 46.14 9.8 46.9 10.37L51.19 13.62C51.52 13.87 51.66 14.31 51.54 14.71L49.98 19.85C49.71 20.76 50.73 21.51 51.51 20.96L55.92 17.89C56.27 17.65 56.72 17.65 57.07 17.89L61.48 20.96C62.26 21.51 63.28 20.76 63.01 19.85L61.45 14.71C61.33 14.31 61.47 13.87 61.8 13.62L66.09 10.37C66.85 9.8 66.46 8.59 65.51 8.57L60.13 8.46C59.71 8.46 59.34 8.19 59.21 7.79L57.44 2.71C57.13 1.82 55.86 1.82 55.55 2.71Z" fill="#FFC700" fill-opacity="1.000000" fill-rule="evenodd"/>
	<path id="Star 8" d="M77.55 2.71L75.78 7.79C75.65 8.19 75.28 8.46 74.86 8.46L69.48 8.57C68.54 8.59 68.14 9.8 68.9 10.37L73.19 13.62C73.52 13.87 73.66 14.31 73.54 14.71L71.98 19.85C71.71 20.76 72.73 21.51 73.51 20.96L77.92 17.89C78.27 17.65 78.72 17.65 79.07 17.89L83.48 20.96C84.26 21.51 85.28 20.76 85.01 19.85L83.45 14.71C83.33 14.31 83.47 13.87 83.8 13.62L88.09 10.37C88.85 9.8 88.46 8.59 87.51 8.57L82.13 8.46C81.71 8.46 81.34 8.19 81.21 7.79L79.44 2.71C79.13 1.82 77.86 1.82 77.55 2.71Z" fill="#FFC700" fill-opacity="1.000000" fill-rule="evenodd"/>
	<path id="Star 9" d="M99.55 2.71L97.78 7.79C97.65 8.19 97.28 8.46 96.86 8.46L91.48 8.57C90.54 8.59 90.14 9.8 90.9 10.37L95.19 13.62C95.52 13.87 95.66 14.31 95.54 14.71L93.98 19.85C93.71 20.76 94.73 21.51 95.51 20.96L99.92 17.89C100.27 17.65 100.72 17.65 101.07 17.89L105.48 20.96C106.26 21.51 107.28 20.76 107.01 19.85L105.45 14.71C105.33 14.31 105.47 13.87 105.81 13.62L110.09 10.37C110.85 9.8 110.46 8.59 109.51 8.57L104.13 8.46C103.71 8.46 103.34 8.19 103.21 7.79L101.44 2.71C101.13 1.82 99.86 1.82 99.55 2.71Z" fill="#FFC700" fill-opacity="1.000000" fill-rule="evenodd"/>
</svg>
